<?xml version="1.0" encoding="utf-8"?>
<!-- Generator: Adobe Illustrator 24.0.0, SVG Export Plug-In . SVG Version: 6.00 Build 0)  -->
<svg version="1.1" id="Layer_1" xmlns="http://www.w3.org/2000/svg" xmlns:xlink="http://www.w3.org/1999/xlink" x="0px" y="0px"
	 viewBox="0 0 165.6 21.87" style="enable-background:new 0 0 165.6 21.87;" xml:space="preserve">
<style type="text/css">
	.st0{clip-path:url(#SVGID_2_);fill:#096BA2;}
</style>
<g>
	<defs>
		<rect id="SVGID_1_" width="165.6" height="35.19"/>
	</defs>
	<clipPath id="SVGID_2_">
		<use xlink:href="#SVGID_1_"  style="overflow:visible;"/>
	</clipPath>
	<path class="st0" d="M147.11,28.93v3.78h0.71v-2.48c0-0.32,0.04-0.6,0.12-0.83c0.08-0.23,0.19-0.42,0.31-0.57
		c0.13-0.15,0.28-0.26,0.46-0.32c0.17-0.07,0.36-0.1,0.55-0.1c0.1,0,0.2,0.01,0.29,0.02c0.1,0.01,0.17,0.03,0.21,0.04l0.09-0.67
		c-0.08-0.02-0.15-0.03-0.23-0.04c-0.07-0.01-0.16-0.01-0.25-0.01c-0.35,0-0.66,0.09-0.94,0.26c-0.28,0.18-0.49,0.41-0.63,0.69
		h-0.02c0-0.1,0-0.23-0.01-0.39c-0.01-0.16-0.02-0.3-0.03-0.43h-0.68c0.01,0.17,0.02,0.35,0.03,0.56
		C147.11,28.63,147.11,28.8,147.11,28.93 M145.43,29.21c-0.1-0.29-0.25-0.54-0.45-0.76s-0.44-0.39-0.73-0.52
		c-0.29-0.13-0.63-0.19-1.02-0.19c-0.35,0-0.67,0.06-0.97,0.19c-0.3,0.13-0.56,0.31-0.79,0.53c-0.22,0.23-0.4,0.5-0.52,0.81
		s-0.19,0.65-0.19,1.01c0,0.37,0.06,0.7,0.19,1.01s0.31,0.58,0.53,0.81c0.22,0.23,0.49,0.41,0.8,0.53c0.31,0.13,0.65,0.19,1.01,0.19
		c0.41,0,0.78-0.08,1.14-0.24c0.35-0.16,0.68-0.42,0.97-0.79l-0.53-0.41c-0.14,0.22-0.34,0.42-0.61,0.58
		c-0.27,0.17-0.59,0.25-0.96,0.25c-0.25,0-0.49-0.05-0.7-0.14c-0.22-0.09-0.41-0.22-0.57-0.38c-0.16-0.16-0.29-0.34-0.38-0.56
		c-0.09-0.21-0.14-0.44-0.15-0.68h4.07c0.01-0.06,0.01-0.12,0.01-0.18v-0.15C145.58,29.81,145.53,29.5,145.43,29.21 M141.51,29.92
		c0.01-0.21,0.07-0.41,0.16-0.6c0.09-0.19,0.21-0.36,0.37-0.51c0.15-0.15,0.33-0.27,0.53-0.35c0.2-0.09,0.42-0.13,0.66-0.13
		c0.51,0,0.9,0.15,1.18,0.45c0.28,0.3,0.42,0.68,0.45,1.13H141.51z M135.73,28.66v-3.78h-0.71v7.82h0.71v-2.48
		c0-0.32,0.04-0.6,0.13-0.84c0.08-0.24,0.2-0.43,0.34-0.59c0.14-0.15,0.3-0.27,0.48-0.35c0.18-0.08,0.36-0.11,0.55-0.11
		c0.26,0,0.47,0.04,0.64,0.12c0.17,0.08,0.31,0.2,0.41,0.35c0.1,0.15,0.17,0.33,0.21,0.53c0.04,0.21,0.06,0.44,0.06,0.69v2.68h0.71
		v-2.97c0-0.6-0.16-1.08-0.47-1.45c-0.31-0.37-0.78-0.55-1.4-0.55c-0.35,0-0.68,0.08-0.99,0.25c-0.31,0.17-0.53,0.39-0.66,0.67
		H135.73z M133.89,27.87h-1.38V26.5h-0.71v1.37h-1.02v0.59h1.02v3.02c0,0.27,0.04,0.49,0.12,0.65c0.08,0.17,0.18,0.3,0.31,0.39
		c0.13,0.1,0.26,0.16,0.41,0.2c0.15,0.03,0.29,0.05,0.42,0.05c0.16,0,0.31-0.01,0.45-0.04c0.14-0.02,0.27-0.06,0.39-0.11l-0.03-0.61
		c-0.1,0.05-0.2,0.09-0.31,0.11s-0.21,0.04-0.31,0.04c-0.1,0-0.2-0.01-0.29-0.04s-0.17-0.07-0.24-0.13
		c-0.07-0.07-0.12-0.16-0.15-0.27c-0.03-0.12-0.05-0.27-0.05-0.44v-2.82h1.38V27.87z M129.99,29.21c-0.1-0.29-0.25-0.54-0.45-0.76
		s-0.44-0.39-0.73-0.52c-0.29-0.13-0.63-0.19-1.02-0.19c-0.35,0-0.67,0.06-0.97,0.19c-0.3,0.13-0.56,0.31-0.79,0.53
		c-0.22,0.23-0.4,0.5-0.52,0.81c-0.13,0.31-0.19,0.65-0.19,1.01c0,0.37,0.06,0.7,0.19,1.01c0.13,0.31,0.31,0.58,0.53,0.81
		c0.22,0.23,0.49,0.41,0.8,0.53c0.31,0.13,0.65,0.19,1.01,0.19c0.41,0,0.78-0.08,1.14-0.24c0.35-0.16,0.68-0.42,0.97-0.79
		l-0.53-0.41c-0.14,0.22-0.34,0.42-0.61,0.58c-0.27,0.17-0.59,0.25-0.96,0.25c-0.25,0-0.49-0.05-0.7-0.14
		c-0.22-0.09-0.41-0.22-0.57-0.38c-0.16-0.16-0.29-0.34-0.38-0.56c-0.09-0.21-0.14-0.44-0.15-0.68h4.07
		c0.01-0.06,0.01-0.12,0.01-0.18v-0.15C130.15,29.81,130.1,29.5,129.99,29.21 M126.08,29.92c0.01-0.21,0.07-0.41,0.16-0.6
		c0.09-0.19,0.21-0.36,0.37-0.51c0.15-0.15,0.33-0.27,0.53-0.35c0.2-0.09,0.42-0.13,0.66-0.13c0.51,0,0.9,0.15,1.18,0.45
		c0.28,0.3,0.42,0.68,0.45,1.13H126.08z M119.58,29.5c0.08-0.23,0.2-0.43,0.36-0.6c0.16-0.17,0.35-0.31,0.58-0.41
		c0.23-0.1,0.49-0.16,0.79-0.16c0.27,0,0.52,0.05,0.75,0.16c0.23,0.1,0.43,0.24,0.6,0.41c0.17,0.17,0.3,0.37,0.39,0.6
		s0.14,0.47,0.14,0.72c0,0.28-0.05,0.54-0.14,0.77s-0.23,0.43-0.39,0.59c-0.17,0.17-0.37,0.29-0.6,0.38
		c-0.23,0.09-0.48,0.13-0.75,0.13c-0.29,0-0.56-0.05-0.79-0.15c-0.23-0.1-0.42-0.24-0.58-0.41c-0.16-0.17-0.28-0.37-0.36-0.6
		c-0.08-0.23-0.13-0.47-0.13-0.72C119.45,29.97,119.49,29.73,119.58,29.5 M118.8,34.22c0.29,0.3,0.65,0.54,1.06,0.71
		c0.41,0.17,0.85,0.26,1.3,0.26c0.55,0,0.99-0.08,1.33-0.25c0.34-0.17,0.61-0.37,0.81-0.62c0.2-0.25,0.34-0.52,0.41-0.82
		c0.07-0.3,0.11-0.58,0.11-0.84v-4.8h-0.71v0.84h-0.02c-0.2-0.31-0.46-0.55-0.81-0.71c-0.34-0.17-0.69-0.25-1.05-0.25
		c-0.38,0-0.73,0.07-1.04,0.2c-0.31,0.13-0.58,0.31-0.8,0.54c-0.22,0.23-0.39,0.49-0.51,0.8c-0.12,0.3-0.18,0.63-0.18,0.97
		c0,0.35,0.06,0.68,0.18,0.98c0.12,0.3,0.29,0.56,0.51,0.78c0.22,0.22,0.49,0.39,0.8,0.51c0.31,0.12,0.66,0.19,1.04,0.19
		c0.36,0,0.71-0.08,1.05-0.25c0.35-0.17,0.61-0.4,0.8-0.7h0.02v0.91c0,0.26-0.03,0.51-0.1,0.74c-0.07,0.23-0.18,0.43-0.33,0.61
		c-0.15,0.17-0.35,0.31-0.59,0.41c-0.24,0.1-0.54,0.15-0.89,0.15c-0.38,0-0.74-0.09-1.07-0.26c-0.34-0.17-0.61-0.38-0.8-0.63
		L118.8,34.22z M116.64,31.05c-0.09,0.24-0.21,0.44-0.37,0.62c-0.16,0.18-0.36,0.31-0.59,0.41s-0.49,0.15-0.78,0.15
		c-0.29,0-0.54-0.05-0.77-0.15s-0.42-0.24-0.58-0.41s-0.29-0.38-0.37-0.62c-0.09-0.24-0.13-0.49-0.13-0.76
		c0-0.27,0.04-0.52,0.13-0.76c0.09-0.24,0.21-0.44,0.37-0.62c0.16-0.18,0.35-0.32,0.58-0.42c0.23-0.1,0.48-0.16,0.77-0.16
		c0.29,0,0.55,0.05,0.78,0.16c0.23,0.1,0.43,0.24,0.59,0.42c0.16,0.18,0.28,0.38,0.37,0.62c0.09,0.24,0.13,0.49,0.13,0.76
		C116.77,30.56,116.73,30.81,116.64,31.05 M117.33,29.27c-0.13-0.31-0.31-0.58-0.54-0.81c-0.23-0.23-0.51-0.4-0.83-0.53
		c-0.32-0.13-0.67-0.19-1.06-0.19c-0.38,0-0.73,0.06-1.05,0.19c-0.32,0.13-0.6,0.31-0.83,0.53c-0.23,0.23-0.41,0.5-0.54,0.81
		c-0.13,0.31-0.19,0.65-0.19,1.01c0,0.37,0.06,0.7,0.19,1.01c0.13,0.31,0.31,0.58,0.54,0.81c0.23,0.23,0.51,0.41,0.83,0.53
		c0.32,0.13,0.67,0.19,1.05,0.19c0.38,0,0.74-0.06,1.06-0.19c0.32-0.13,0.6-0.31,0.83-0.53c0.23-0.23,0.41-0.5,0.54-0.81
		c0.13-0.31,0.19-0.65,0.19-1.01C117.52,29.92,117.46,29.58,117.33,29.27 M111.54,27.87h-1.38V26.5h-0.71v1.37h-1.02v0.59h1.02v3.02
		c0,0.27,0.04,0.49,0.12,0.65c0.08,0.17,0.18,0.3,0.31,0.39c0.13,0.1,0.26,0.16,0.41,0.2c0.15,0.03,0.29,0.05,0.42,0.05
		c0.16,0,0.31-0.01,0.45-0.04c0.14-0.02,0.27-0.06,0.39-0.11l-0.03-0.61c-0.1,0.05-0.2,0.09-0.31,0.11
		c-0.11,0.03-0.21,0.04-0.31,0.04c-0.1,0-0.2-0.01-0.29-0.04c-0.09-0.02-0.17-0.07-0.24-0.13c-0.07-0.07-0.12-0.16-0.15-0.27
		c-0.03-0.12-0.05-0.27-0.05-0.44v-2.82h1.38V27.87z M105.21,28.61c-0.16-0.28-0.4-0.49-0.72-0.64c-0.32-0.15-0.65-0.23-1-0.23
		c-0.22,0-0.44,0.03-0.65,0.08c-0.21,0.06-0.4,0.14-0.56,0.25c-0.16,0.11-0.3,0.26-0.39,0.43c-0.1,0.18-0.15,0.39-0.15,0.64
		c0,0.23,0.05,0.42,0.14,0.57c0.09,0.15,0.21,0.28,0.35,0.38c0.14,0.1,0.29,0.18,0.46,0.23c0.16,0.05,0.32,0.09,0.47,0.13
		c0.47,0.11,0.83,0.23,1.07,0.36c0.25,0.13,0.37,0.32,0.37,0.57c0,0.16-0.03,0.29-0.09,0.4c-0.06,0.11-0.15,0.2-0.25,0.26
		c-0.11,0.07-0.23,0.12-0.37,0.14c-0.14,0.03-0.29,0.04-0.44,0.04c-0.29,0-0.56-0.07-0.81-0.22c-0.24-0.14-0.43-0.32-0.56-0.54
		l-0.57,0.41c0.22,0.32,0.51,0.56,0.86,0.71c0.35,0.15,0.71,0.23,1.08,0.23c0.22,0,0.45-0.03,0.67-0.08s0.42-0.14,0.59-0.26
		c0.17-0.12,0.32-0.28,0.42-0.47c0.11-0.19,0.16-0.42,0.16-0.7c0-0.38-0.14-0.68-0.41-0.9c-0.28-0.22-0.7-0.39-1.28-0.51
		c-0.41-0.08-0.7-0.18-0.89-0.31c-0.19-0.12-0.28-0.29-0.28-0.52c0-0.13,0.03-0.25,0.09-0.34c0.06-0.1,0.14-0.18,0.24-0.24
		c0.1-0.06,0.21-0.11,0.34-0.13c0.13-0.03,0.25-0.04,0.38-0.04c0.27,0,0.52,0.06,0.73,0.19c0.21,0.13,0.37,0.29,0.48,0.49
		L105.21,28.61z M100.37,29.21c-0.1-0.29-0.25-0.54-0.45-0.76c-0.2-0.22-0.44-0.39-0.73-0.52c-0.29-0.13-0.63-0.19-1.02-0.19
		c-0.35,0-0.67,0.06-0.97,0.19c-0.3,0.13-0.56,0.31-0.79,0.53c-0.22,0.23-0.4,0.5-0.52,0.81c-0.13,0.31-0.19,0.65-0.19,1.01
		c0,0.37,0.06,0.7,0.19,1.01c0.13,0.31,0.31,0.58,0.53,0.81c0.22,0.23,0.49,0.41,0.8,0.53c0.31,0.13,0.65,0.19,1.01,0.19
		c0.41,0,0.78-0.08,1.14-0.24c0.35-0.16,0.68-0.42,0.97-0.79l-0.53-0.41c-0.14,0.22-0.34,0.42-0.61,0.58
		c-0.27,0.17-0.59,0.25-0.96,0.25c-0.25,0-0.49-0.05-0.7-0.14c-0.22-0.09-0.41-0.22-0.57-0.38c-0.16-0.16-0.29-0.34-0.38-0.56
		c-0.09-0.21-0.14-0.44-0.15-0.68h4.07c0.01-0.06,0.01-0.12,0.01-0.18v-0.15C100.52,29.81,100.47,29.5,100.37,29.21 M96.45,29.92
		c0.01-0.21,0.07-0.41,0.16-0.6c0.09-0.19,0.21-0.36,0.37-0.51c0.15-0.15,0.33-0.27,0.53-0.35c0.2-0.09,0.42-0.13,0.66-0.13
		c0.51,0,0.9,0.15,1.18,0.45c0.28,0.3,0.42,0.68,0.45,1.13H96.45z M92.47,28.93v3.78h0.71v-2.48c0-0.32,0.04-0.6,0.12-0.83
		c0.08-0.23,0.18-0.42,0.31-0.57c0.13-0.15,0.28-0.26,0.46-0.32c0.17-0.07,0.36-0.1,0.54-0.1c0.1,0,0.2,0.01,0.29,0.02
		c0.1,0.01,0.17,0.03,0.21,0.04l0.09-0.67c-0.08-0.02-0.15-0.03-0.23-0.04c-0.07-0.01-0.16-0.01-0.25-0.01
		c-0.35,0-0.66,0.09-0.94,0.26c-0.28,0.18-0.49,0.41-0.63,0.69h-0.02c0-0.1,0-0.23-0.01-0.39c-0.01-0.16-0.02-0.3-0.03-0.43h-0.68
		c0.01,0.17,0.02,0.35,0.03,0.56C92.46,28.63,92.47,28.8,92.47,28.93 M90.62,32.71c-0.01-0.17-0.02-0.35-0.03-0.56
		c-0.01-0.21-0.01-0.38-0.01-0.51v-3.78h-0.71v2.48c0,0.32-0.04,0.6-0.13,0.84c-0.08,0.24-0.2,0.43-0.34,0.59
		c-0.14,0.16-0.3,0.27-0.48,0.35c-0.18,0.08-0.36,0.11-0.55,0.11c-0.26,0-0.47-0.04-0.64-0.12c-0.17-0.08-0.31-0.2-0.41-0.35
		c-0.1-0.15-0.17-0.33-0.21-0.53c-0.04-0.21-0.06-0.44-0.06-0.69v-2.68h-0.71v2.97c0,0.6,0.16,1.08,0.47,1.45
		c0.31,0.37,0.78,0.55,1.4,0.55c0.35,0,0.68-0.09,1-0.26c0.31-0.18,0.54-0.41,0.68-0.69h0.02c0,0.1,0,0.23,0.01,0.39
		c0.01,0.16,0.02,0.3,0.03,0.43H90.62z M85.26,27.87h-1.38V26.5h-0.71v1.37h-1.02v0.59h1.02v3.02c0,0.27,0.04,0.49,0.12,0.65
		c0.08,0.17,0.18,0.3,0.31,0.39c0.13,0.1,0.26,0.16,0.41,0.2c0.15,0.03,0.29,0.05,0.42,0.05c0.16,0,0.31-0.01,0.45-0.04
		c0.14-0.02,0.27-0.06,0.39-0.11l-0.03-0.61c-0.1,0.05-0.2,0.09-0.31,0.11c-0.11,0.03-0.21,0.04-0.31,0.04
		c-0.11,0-0.2-0.01-0.29-0.04c-0.09-0.02-0.17-0.07-0.24-0.13c-0.07-0.07-0.12-0.16-0.15-0.27c-0.04-0.12-0.05-0.27-0.05-0.44v-2.82
		h1.38V27.87z M81.21,32.71c-0.01-0.17-0.02-0.35-0.03-0.56c-0.01-0.21-0.01-0.38-0.01-0.51v-3.78h-0.71v2.48
		c0,0.32-0.04,0.6-0.13,0.84c-0.08,0.24-0.2,0.43-0.34,0.59c-0.14,0.16-0.3,0.27-0.48,0.35c-0.18,0.08-0.36,0.11-0.55,0.11
		c-0.26,0-0.47-0.04-0.64-0.12c-0.17-0.08-0.31-0.2-0.41-0.35c-0.1-0.15-0.17-0.33-0.21-0.53c-0.04-0.21-0.06-0.44-0.06-0.69v-2.68
		h-0.71v2.97c0,0.6,0.16,1.08,0.47,1.45c0.31,0.37,0.78,0.55,1.4,0.55c0.35,0,0.68-0.09,1-0.26c0.31-0.18,0.54-0.41,0.68-0.69h0.02
		c0,0.1,0,0.23,0.01,0.39c0.01,0.16,0.02,0.3,0.03,0.43H81.21z M75.94,27.87h-1.15v-1.24c0-0.17,0.01-0.33,0.04-0.49
		c0.02-0.15,0.07-0.28,0.14-0.4c0.07-0.11,0.16-0.2,0.28-0.26c0.12-0.06,0.28-0.09,0.47-0.09c0.1,0,0.18,0.01,0.26,0.02
		c0.08,0.01,0.15,0.03,0.23,0.05l0.13-0.62c-0.09-0.03-0.19-0.05-0.29-0.06c-0.11-0.01-0.2-0.02-0.29-0.02
		c-0.57,0-0.99,0.16-1.26,0.48c-0.27,0.32-0.41,0.75-0.41,1.3v1.32h-1.03v0.59h1.03v4.25h0.71v-4.25h1.15V27.87z M67.47,28.93v3.78
		h0.71v-2.48c0-0.32,0.04-0.6,0.12-0.83c0.08-0.23,0.18-0.42,0.31-0.57c0.13-0.15,0.28-0.26,0.46-0.32c0.17-0.07,0.36-0.1,0.55-0.1
		c0.1,0,0.2,0.01,0.29,0.02c0.1,0.01,0.17,0.03,0.21,0.04l0.09-0.67c-0.08-0.02-0.15-0.03-0.23-0.04c-0.07-0.01-0.16-0.01-0.25-0.01
		c-0.35,0-0.66,0.09-0.94,0.26c-0.28,0.18-0.49,0.41-0.63,0.69h-0.02c0-0.1,0-0.23-0.01-0.39c-0.01-0.16-0.02-0.3-0.03-0.43h-0.68
		c0.01,0.17,0.02,0.35,0.03,0.56C67.47,28.63,67.47,28.8,67.47,28.93 M65.79,29.21c-0.1-0.29-0.25-0.54-0.45-0.76
		c-0.2-0.22-0.44-0.39-0.73-0.52c-0.29-0.13-0.63-0.19-1.02-0.19c-0.35,0-0.67,0.06-0.98,0.19c-0.3,0.13-0.56,0.31-0.79,0.53
		c-0.22,0.23-0.4,0.5-0.52,0.81c-0.13,0.31-0.19,0.65-0.19,1.01c0,0.37,0.06,0.7,0.19,1.01s0.31,0.58,0.53,0.81
		c0.22,0.23,0.49,0.41,0.8,0.53c0.31,0.13,0.65,0.19,1.01,0.19c0.41,0,0.78-0.08,1.14-0.24c0.35-0.16,0.68-0.42,0.97-0.79
		l-0.54-0.41c-0.14,0.22-0.34,0.42-0.61,0.58c-0.27,0.17-0.59,0.25-0.96,0.25c-0.25,0-0.49-0.05-0.7-0.14
		c-0.22-0.09-0.41-0.22-0.57-0.38c-0.16-0.16-0.29-0.34-0.38-0.56c-0.09-0.21-0.14-0.44-0.15-0.68h4.07
		c0.01-0.06,0.01-0.12,0.01-0.18v-0.15C65.94,29.81,65.89,29.5,65.79,29.21 M61.88,29.92c0.01-0.21,0.07-0.41,0.16-0.6
		c0.09-0.19,0.21-0.36,0.37-0.51c0.15-0.15,0.33-0.27,0.54-0.35c0.2-0.09,0.42-0.13,0.66-0.13c0.51,0,0.9,0.15,1.18,0.45
		c0.28,0.3,0.42,0.68,0.45,1.13H61.88z M59.07,31.05c-0.08,0.24-0.2,0.44-0.36,0.62c-0.16,0.18-0.35,0.31-0.58,0.41
		c-0.23,0.1-0.49,0.15-0.79,0.15c-0.27,0-0.52-0.05-0.75-0.15c-0.23-0.1-0.43-0.24-0.6-0.41c-0.17-0.17-0.3-0.38-0.39-0.62
		c-0.09-0.24-0.14-0.49-0.14-0.77c0-0.28,0.05-0.53,0.14-0.77c0.09-0.24,0.23-0.44,0.39-0.62c0.17-0.18,0.37-0.31,0.6-0.41
		c0.23-0.1,0.48-0.15,0.75-0.15c0.29,0,0.56,0.05,0.79,0.16c0.23,0.1,0.42,0.24,0.58,0.42c0.16,0.18,0.28,0.38,0.36,0.62
		c0.08,0.24,0.13,0.49,0.13,0.76C59.19,30.56,59.15,30.81,59.07,31.05 M55.53,31.89h0.03c0.2,0.3,0.47,0.54,0.81,0.7
		c0.34,0.16,0.68,0.24,1.03,0.24c0.38,0,0.73-0.07,1.04-0.2c0.31-0.13,0.58-0.31,0.8-0.54c0.22-0.23,0.39-0.5,0.51-0.81
		c0.12-0.31,0.18-0.64,0.18-1c0-0.36-0.06-0.69-0.18-1c-0.12-0.31-0.29-0.58-0.51-0.81c-0.22-0.23-0.49-0.41-0.8-0.54
		c-0.31-0.13-0.66-0.2-1.04-0.2c-0.35,0-0.69,0.08-1.03,0.24c-0.34,0.16-0.61,0.4-0.81,0.72h-0.03v-0.84h-0.71v7.32h0.71V31.89z
		 M52.97,32.71c-0.01-0.17-0.02-0.35-0.03-0.56c-0.01-0.21-0.01-0.38-0.01-0.51v-3.78h-0.71v2.48c0,0.32-0.04,0.6-0.13,0.84
		c-0.08,0.24-0.2,0.43-0.34,0.59c-0.14,0.16-0.3,0.27-0.48,0.35c-0.18,0.08-0.36,0.11-0.55,0.11c-0.26,0-0.47-0.04-0.64-0.12
		c-0.17-0.08-0.31-0.2-0.41-0.35s-0.17-0.33-0.21-0.53c-0.04-0.21-0.06-0.44-0.06-0.69v-2.68h-0.71v2.97c0,0.6,0.16,1.08,0.47,1.45
		c0.31,0.37,0.78,0.55,1.4,0.55c0.35,0,0.68-0.09,1-0.26c0.31-0.18,0.54-0.41,0.68-0.69h0.02c0,0.1,0,0.23,0.01,0.39
		c0.01,0.16,0.02,0.3,0.03,0.43H52.97z M47.23,28.61c-0.16-0.28-0.4-0.49-0.72-0.64c-0.32-0.15-0.65-0.23-1-0.23
		c-0.22,0-0.44,0.03-0.65,0.08c-0.21,0.06-0.4,0.14-0.56,0.25c-0.16,0.11-0.3,0.26-0.39,0.43c-0.1,0.18-0.15,0.39-0.15,0.64
		c0,0.23,0.05,0.42,0.14,0.57c0.09,0.15,0.21,0.28,0.35,0.38c0.14,0.1,0.29,0.18,0.46,0.23c0.16,0.05,0.32,0.09,0.47,0.13
		c0.47,0.11,0.83,0.23,1.07,0.36c0.25,0.13,0.37,0.32,0.37,0.57c0,0.16-0.03,0.29-0.09,0.4c-0.06,0.11-0.15,0.2-0.25,0.26
		c-0.11,0.07-0.23,0.12-0.37,0.14c-0.14,0.03-0.29,0.04-0.44,0.04c-0.29,0-0.56-0.07-0.81-0.22c-0.24-0.14-0.43-0.32-0.56-0.54
		l-0.57,0.41c0.22,0.32,0.51,0.56,0.86,0.71c0.35,0.15,0.71,0.23,1.08,0.23c0.22,0,0.45-0.03,0.67-0.08
		c0.22-0.05,0.42-0.14,0.59-0.26c0.17-0.12,0.32-0.28,0.42-0.47c0.11-0.19,0.16-0.42,0.16-0.7c0-0.38-0.14-0.68-0.41-0.9
		c-0.28-0.22-0.7-0.39-1.28-0.51c-0.41-0.08-0.7-0.18-0.89-0.31c-0.19-0.12-0.28-0.29-0.28-0.52c0-0.13,0.03-0.25,0.09-0.34
		c0.06-0.1,0.14-0.18,0.24-0.24c0.1-0.06,0.21-0.11,0.34-0.13c0.13-0.03,0.25-0.04,0.38-0.04c0.27,0,0.52,0.06,0.73,0.19
		c0.21,0.13,0.37,0.29,0.48,0.49L47.23,28.61z M39.77,29.21c-0.1-0.29-0.25-0.54-0.45-0.76s-0.44-0.39-0.73-0.52
		c-0.29-0.13-0.63-0.19-1.02-0.19c-0.35,0-0.67,0.06-0.97,0.19c-0.3,0.13-0.56,0.31-0.79,0.53c-0.22,0.23-0.4,0.5-0.52,0.81
		c-0.13,0.31-0.19,0.65-0.19,1.01c0,0.37,0.06,0.7,0.19,1.01c0.13,0.31,0.31,0.58,0.53,0.81c0.22,0.23,0.49,0.41,0.8,0.53
		c0.31,0.13,0.65,0.19,1.01,0.19c0.41,0,0.78-0.08,1.14-0.24c0.35-0.16,0.68-0.42,0.97-0.79l-0.53-0.41
		c-0.14,0.22-0.34,0.42-0.61,0.58c-0.27,0.17-0.59,0.25-0.96,0.25c-0.25,0-0.49-0.05-0.7-0.14c-0.22-0.09-0.41-0.22-0.57-0.38
		c-0.16-0.16-0.29-0.34-0.38-0.56c-0.09-0.21-0.14-0.44-0.15-0.68h4.07c0.01-0.06,0.01-0.12,0.01-0.18v-0.15
		C39.92,29.81,39.87,29.5,39.77,29.21 M35.85,29.92c0.01-0.21,0.07-0.41,0.16-0.6c0.09-0.19,0.21-0.36,0.37-0.51
		c0.15-0.15,0.33-0.27,0.53-0.35c0.2-0.09,0.42-0.13,0.66-0.13c0.51,0,0.9,0.15,1.18,0.45c0.28,0.3,0.42,0.68,0.45,1.13H35.85z
		 M31.87,28.93v3.78h0.71v-2.48c0-0.32,0.04-0.6,0.12-0.83s0.19-0.42,0.31-0.57c0.13-0.15,0.28-0.26,0.46-0.32
		c0.17-0.07,0.36-0.1,0.55-0.1c0.1,0,0.2,0.01,0.29,0.02c0.1,0.01,0.17,0.03,0.21,0.04l0.09-0.67c-0.08-0.02-0.15-0.03-0.23-0.04
		c-0.07-0.01-0.16-0.01-0.25-0.01c-0.35,0-0.66,0.09-0.94,0.26c-0.28,0.18-0.49,0.41-0.63,0.69h-0.02c0-0.1,0-0.23-0.01-0.39
		c-0.01-0.16-0.02-0.3-0.03-0.43h-0.68c0.01,0.17,0.02,0.35,0.03,0.56C31.87,28.63,31.87,28.8,31.87,28.93 M29.45,31.05
		c-0.09,0.24-0.21,0.44-0.37,0.62c-0.16,0.18-0.36,0.31-0.59,0.41c-0.23,0.1-0.49,0.15-0.78,0.15c-0.29,0-0.54-0.05-0.77-0.15
		c-0.23-0.1-0.42-0.24-0.58-0.41s-0.28-0.38-0.37-0.62c-0.09-0.24-0.13-0.49-0.13-0.76c0-0.27,0.04-0.52,0.13-0.76
		c0.09-0.24,0.21-0.44,0.37-0.62c0.16-0.18,0.35-0.32,0.58-0.42c0.23-0.1,0.48-0.16,0.77-0.16c0.29,0,0.55,0.05,0.78,0.16
		c0.23,0.1,0.43,0.24,0.59,0.42c0.16,0.18,0.28,0.38,0.37,0.62c0.09,0.24,0.13,0.49,0.13,0.76C29.59,30.56,29.54,30.81,29.45,31.05
		 M30.15,29.27c-0.13-0.31-0.31-0.58-0.54-0.81c-0.23-0.23-0.51-0.4-0.83-0.53c-0.32-0.13-0.67-0.19-1.06-0.19
		c-0.38,0-0.73,0.06-1.05,0.19c-0.32,0.13-0.6,0.31-0.83,0.53c-0.23,0.23-0.41,0.5-0.54,0.81s-0.19,0.65-0.19,1.01
		c0,0.37,0.06,0.7,0.19,1.01s0.31,0.58,0.54,0.81c0.23,0.23,0.51,0.41,0.83,0.53c0.32,0.13,0.67,0.19,1.05,0.19
		c0.38,0,0.74-0.06,1.06-0.19c0.32-0.13,0.6-0.31,0.83-0.53c0.23-0.23,0.41-0.5,0.54-0.81c0.13-0.31,0.19-0.65,0.19-1.01
		C30.34,29.92,30.28,29.58,30.15,29.27 M16.91,28.69h-0.02c0-0.1,0-0.23-0.01-0.39c-0.01-0.16-0.02-0.3-0.03-0.43h-0.68
		c0.01,0.17,0.02,0.35,0.03,0.56c0.01,0.21,0.01,0.38,0.01,0.51v3.78h0.71v-2.48c0-0.32,0.04-0.6,0.13-0.84
		c0.08-0.24,0.19-0.43,0.33-0.59c0.14-0.15,0.29-0.27,0.46-0.35c0.17-0.08,0.34-0.11,0.51-0.11c0.24,0,0.43,0.04,0.59,0.11
		c0.15,0.07,0.27,0.18,0.36,0.31c0.09,0.13,0.15,0.3,0.18,0.49c0.03,0.19,0.05,0.41,0.05,0.64v2.82h0.71v-2.58
		c0-0.23,0.02-0.45,0.07-0.66c0.05-0.21,0.13-0.4,0.24-0.57c0.11-0.17,0.25-0.31,0.43-0.41c0.18-0.1,0.4-0.16,0.66-0.16
		c0.46,0,0.79,0.16,0.98,0.47c0.19,0.31,0.29,0.72,0.29,1.23v2.68h0.71v-2.97c0-0.6-0.16-1.08-0.47-1.45
		c-0.31-0.37-0.78-0.55-1.4-0.55c-0.4,0-0.74,0.09-1.03,0.26c-0.29,0.18-0.52,0.43-0.69,0.76c-0.08-0.21-0.18-0.38-0.3-0.51
		c-0.12-0.13-0.24-0.24-0.38-0.32c-0.14-0.08-0.28-0.13-0.42-0.16c-0.14-0.03-0.28-0.04-0.41-0.04c-0.36,0-0.68,0.09-0.97,0.26
		C17.26,28.18,17.05,28.41,16.91,28.69"/>
	<path class="st0" d="M158.19,16.11c-0.19-0.11-0.38-0.21-0.59-0.3c-0.21-0.09-0.45-0.18-0.71-0.25V9.34
		c0.15-0.69,0.39-1.24,0.71-1.66c0.32-0.41,0.76-0.62,1.32-0.62c0.75,0,1.23,0.28,1.46,0.85c0.23,0.57,0.34,1.45,0.34,2.65v5
		c-0.42,0.14-0.81,0.32-1.16,0.55v0.87h6.06v-0.87c-0.5-0.28-1.01-0.46-1.54-0.55V10.1c0-0.97-0.08-1.77-0.23-2.4
		c-0.16-0.63-0.38-1.13-0.69-1.5c-0.3-0.37-0.68-0.63-1.12-0.77c-0.44-0.15-0.95-0.22-1.53-0.22c-0.93,0-1.72,0.26-2.38,0.78
		c-0.65,0.52-1.12,1.2-1.4,2.05c-0.09-0.58-0.25-1.06-0.47-1.43c-0.22-0.37-0.48-0.65-0.78-0.86c-0.3-0.21-0.63-0.35-0.99-0.43
		c-0.36-0.08-0.72-0.11-1.1-0.11c-0.89,0-1.64,0.25-2.27,0.76c-0.63,0.51-1.07,1.12-1.32,1.84h-0.02v-2.6h-0.79
		c-0.25,0.03-0.56,0.07-0.92,0.11c-0.37,0.05-0.74,0.1-1.13,0.17c-0.39,0.07-0.77,0.15-1.13,0.24c-0.37,0.09-0.67,0.19-0.92,0.3
		v0.87l1.54,0.18v8.45c-0.28,0.08-0.55,0.16-0.82,0.25c-0.26,0.09-0.51,0.19-0.72,0.3v0.87h6.06v-0.87
		c-0.36-0.25-0.75-0.43-1.16-0.55V9.11c0.17-0.61,0.44-1.11,0.8-1.49c0.36-0.38,0.8-0.56,1.29-0.56c0.34,0,0.62,0.07,0.84,0.22
		c0.22,0.15,0.39,0.38,0.51,0.69c0.12,0.31,0.21,0.72,0.24,1.21c0.04,0.49,0.06,1.09,0.06,1.8v4.59c-0.23,0.08-0.45,0.17-0.64,0.26
		c-0.19,0.1-0.37,0.2-0.52,0.29v0.87h5.82V16.11z M139.97,15.56c-0.37,0.26-0.78,0.39-1.23,0.39c-0.19,0-0.38-0.01-0.59-0.03
		c-0.21-0.02-0.4-0.1-0.57-0.22l-1.14-2.51h-0.79c-0.26,0.44-0.51,0.95-0.75,1.52c-0.23,0.57-0.37,1.13-0.4,1.68
		c0.57,0.28,1.26,0.49,2.05,0.64c0.79,0.15,1.56,0.23,2.31,0.23c1.46,0,2.62-0.3,3.49-0.91c0.87-0.61,1.3-1.44,1.3-2.49
		c0-0.6-0.14-1.11-0.43-1.54c-0.29-0.43-0.64-0.8-1.07-1.11c-0.43-0.31-0.89-0.59-1.4-0.84c-0.51-0.25-0.97-0.49-1.4-0.74
		c-0.43-0.25-0.78-0.51-1.07-0.79c-0.29-0.28-0.43-0.62-0.43-1c0-0.34,0.12-0.64,0.36-0.91c0.24-0.27,0.59-0.4,1.06-0.4
		c0.25,0,0.47,0.01,0.68,0.03c0.2,0.02,0.4,0.07,0.58,0.15l0.98,2.34h0.79c0.17-0.46,0.35-0.97,0.54-1.53
		c0.19-0.56,0.31-1.08,0.37-1.57c-0.54-0.23-1.18-0.41-1.9-0.54c-0.72-0.13-1.5-0.2-2.34-0.2c-0.61,0-1.17,0.07-1.69,0.22
		c-0.52,0.15-0.97,0.35-1.34,0.61c-0.37,0.26-0.67,0.58-0.89,0.95c-0.22,0.38-0.33,0.79-0.33,1.25c0,0.64,0.14,1.19,0.43,1.63
		c0.29,0.44,0.64,0.83,1.07,1.16c0.43,0.33,0.89,0.62,1.4,0.86c0.5,0.25,0.97,0.49,1.4,0.74c0.43,0.25,0.78,0.51,1.07,0.8
		c0.29,0.29,0.43,0.64,0.43,1.03C140.53,14.94,140.35,15.3,139.97,15.56 M128.55,2.97c0.37,0.31,0.84,0.46,1.43,0.46
		c0.58,0,1.06-0.15,1.43-0.46c0.37-0.31,0.55-0.72,0.55-1.24c0-0.54-0.18-0.96-0.55-1.26C131.04,0.15,130.56,0,129.98,0
		c-0.58,0-1.06,0.15-1.43,0.46C128.18,0.77,128,1.19,128,1.72C128,2.25,128.18,2.66,128.55,2.97 M133.24,16.11
		c-0.22-0.12-0.45-0.23-0.7-0.31c-0.25-0.08-0.53-0.16-0.84-0.24V5.22h-0.79c-0.28,0.03-0.61,0.07-0.98,0.13
		c-0.37,0.05-0.75,0.11-1.14,0.18c-0.39,0.07-0.76,0.15-1.11,0.24c-0.35,0.09-0.64,0.18-0.87,0.28v0.87l1.54,0.18v8.45
		c-0.29,0.08-0.57,0.16-0.82,0.24c-0.25,0.09-0.49,0.19-0.72,0.31v0.87h6.43V16.11z M125.81,16.11c-0.4-0.26-0.92-0.44-1.54-0.55
		v-5.51c0-0.95-0.09-1.74-0.27-2.36c-0.18-0.62-0.43-1.12-0.77-1.49c-0.33-0.37-0.74-0.63-1.22-0.77c-0.48-0.15-1.03-0.22-1.63-0.22
		c-0.93,0-1.72,0.23-2.38,0.7c-0.65,0.47-1.14,1.02-1.47,1.67h-0.02V5.22h-0.79c-0.33,0.03-0.69,0.07-1.08,0.13
		c-0.4,0.05-0.78,0.12-1.17,0.2c-0.38,0.08-0.73,0.16-1.06,0.24c-0.33,0.08-0.59,0.17-0.79,0.26v0.87l1.54,0.18v8.45
		c-0.64,0.17-1.15,0.35-1.54,0.55v0.87h6.17v-0.87c-0.22-0.14-0.42-0.25-0.62-0.33c-0.19-0.08-0.42-0.16-0.66-0.22V9.15
		c0.22-0.64,0.54-1.16,0.97-1.53c0.43-0.38,0.94-0.56,1.53-0.56c0.71,0,1.21,0.27,1.49,0.82c0.28,0.55,0.42,1.3,0.42,2.27v5.41
		c-0.26,0.09-0.49,0.18-0.69,0.26c-0.19,0.08-0.39,0.18-0.59,0.29v0.87h6.17V16.11z M102.65,14.94c-0.28-0.32-0.42-0.77-0.42-1.36
		c0-0.38,0.05-0.71,0.15-0.98c0.1-0.27,0.28-0.49,0.55-0.67c0.26-0.18,0.63-0.3,1.1-0.38c0.47-0.08,1.06-0.12,1.79-0.14v2.3
		c-0.05,0.15-0.11,0.33-0.2,0.53c-0.09,0.2-0.21,0.38-0.37,0.55c-0.16,0.17-0.36,0.31-0.59,0.44c-0.23,0.12-0.51,0.18-0.84,0.18
		C103.32,15.42,102.93,15.26,102.65,14.94 M109.11,11.37c0.04-0.74,0.06-1.57,0.06-2.49c0-0.51-0.06-0.98-0.19-1.43
		c-0.12-0.44-0.35-0.83-0.66-1.16c-0.32-0.33-0.76-0.59-1.32-0.78c-0.56-0.19-1.28-0.29-2.17-0.29c-1.04,0-2.03,0.11-2.96,0.34
		c-0.93,0.23-1.69,0.54-2.28,0.94c0.03,0.26,0.08,0.53,0.15,0.8c0.07,0.28,0.15,0.55,0.26,0.82c0.1,0.27,0.21,0.52,0.33,0.76
		c0.12,0.24,0.24,0.45,0.36,0.63h1.03l1.1-2.76c0.4-0.15,0.85-0.23,1.33-0.23c0.78,0,1.28,0.31,1.51,0.92
		c0.23,0.61,0.29,1.58,0.16,2.9c-1.27,0.06-2.36,0.16-3.25,0.3c-0.89,0.14-1.62,0.35-2.19,0.63c-0.57,0.28-0.98,0.65-1.25,1.09
		c-0.26,0.44-0.4,1.01-0.4,1.7c0,0.49,0.09,0.93,0.28,1.32s0.44,0.72,0.77,1c0.33,0.28,0.71,0.49,1.14,0.64
		c0.43,0.15,0.91,0.23,1.42,0.23c0.48,0,0.92-0.07,1.3-0.21c0.39-0.14,0.73-0.32,1.01-0.54c0.29-0.22,0.52-0.48,0.71-0.76
		c0.19-0.28,0.32-0.58,0.4-0.89h0.12c0.02,0.51,0.04,0.94,0.07,1.29c0.03,0.35,0.12,0.71,0.28,1.06h0.79
		c0.26-0.03,0.57-0.07,0.91-0.13c0.34-0.05,0.69-0.12,1.04-0.21c0.35-0.08,0.68-0.17,1-0.26c0.32-0.09,0.57-0.18,0.76-0.28v-0.8
		l-1.61-0.23c-0.03-0.28-0.05-0.54-0.06-0.78c-0.01-0.25-0.01-0.54-0.01-0.87C109.06,12.87,109.08,12.11,109.11,11.37 M89.53,7.13
		c0.28-0.4,0.81-0.6,1.58-0.6c0.75,0,1.27,0.2,1.56,0.61c0.29,0.41,0.44,1.02,0.44,1.85c0,0.78-0.14,1.38-0.43,1.8
		c-0.29,0.42-0.81,0.63-1.57,0.63c-0.79,0-1.32-0.21-1.6-0.62c-0.27-0.41-0.41-1.02-0.41-1.82C89.11,8.14,89.25,7.52,89.53,7.13
		 M93.42,20.01c-0.42,0.36-1.06,0.54-1.93,0.54c-0.89,0-1.57-0.2-2.06-0.59c-0.49-0.39-0.73-0.94-0.73-1.64
		c0-0.43,0.09-0.8,0.26-1.1c0.17-0.31,0.46-0.61,0.86-0.92c0.5,0.15,1,0.29,1.5,0.4c0.5,0.11,0.96,0.25,1.36,0.41
		c0.4,0.16,0.73,0.37,0.99,0.62c0.26,0.25,0.38,0.59,0.38,1C94.05,19.22,93.84,19.65,93.42,20.01 M87.2,6.18
		c-0.96,0.64-1.44,1.54-1.44,2.69c0,0.97,0.29,1.76,0.86,2.38c0.57,0.62,1.35,1.04,2.33,1.25c-0.23,0.09-0.47,0.2-0.7,0.33
		c-0.23,0.13-0.45,0.28-0.65,0.44c-0.2,0.16-0.37,0.34-0.49,0.53c-0.12,0.19-0.19,0.39-0.19,0.59c0,0.23,0.05,0.43,0.16,0.61
		c0.11,0.18,0.25,0.33,0.42,0.46c0.17,0.13,0.36,0.24,0.58,0.33c0.22,0.09,0.44,0.17,0.68,0.23c-0.5,0.12-0.95,0.26-1.36,0.41
		c-0.41,0.15-0.77,0.34-1.08,0.57c-0.31,0.23-0.55,0.5-0.72,0.8c-0.17,0.31-0.26,0.67-0.26,1.1c0,0.38,0.11,0.75,0.31,1.1
		c0.21,0.35,0.54,0.67,0.99,0.94c0.45,0.28,1.04,0.49,1.76,0.66c0.72,0.16,1.6,0.24,2.62,0.24c0.87,0,1.69-0.09,2.46-0.26
		c0.77-0.18,1.44-0.43,2-0.76c0.57-0.33,1.01-0.73,1.34-1.21c0.33-0.48,0.48-1.02,0.47-1.63c-0.02-0.64-0.22-1.17-0.61-1.57
		c-0.39-0.41-0.87-0.74-1.44-0.99c-0.57-0.25-1.19-0.46-1.85-0.61c-0.66-0.15-1.28-0.29-1.85-0.41c-0.57-0.12-1.05-0.26-1.42-0.41
		c-0.37-0.15-0.56-0.36-0.56-0.62c0-0.12,0.03-0.25,0.11-0.38c0.07-0.13,0.14-0.24,0.2-0.33c0.15,0.03,0.34,0.05,0.55,0.06
		c0.21,0.01,0.45,0.01,0.71,0.01c0.9,0,1.69-0.1,2.36-0.3c0.68-0.2,1.23-0.47,1.68-0.82c0.44-0.34,0.77-0.74,0.99-1.18
		c0.22-0.44,0.33-0.92,0.33-1.43c0-0.47-0.07-0.88-0.22-1.23c-0.15-0.34-0.31-0.62-0.48-0.84h2.45l0.3-0.55
		c0-0.11-0.02-0.25-0.07-0.41c-0.05-0.17-0.11-0.34-0.19-0.51C98.19,5.3,98.1,5.15,97.99,5c-0.11-0.15-0.22-0.26-0.33-0.33
		c-0.95,0.31-1.79,0.85-2.52,1.63c-0.34-0.31-0.85-0.56-1.51-0.77c-0.67-0.21-1.51-0.31-2.52-0.31C89.47,5.22,88.17,5.54,87.2,6.18
		 M84.87,8.14v-0.9c-0.08-0.35-0.18-0.72-0.3-1.11c-0.12-0.39-0.27-0.69-0.44-0.91c-0.42-0.02-0.82,0.07-1.21,0.25
		c-0.39,0.18-0.75,0.43-1.07,0.74c-0.33,0.31-0.61,0.64-0.85,1.01c-0.24,0.37-0.42,0.72-0.55,1.06h-0.09V5.22h-0.79
		c-0.25,0.03-0.56,0.07-0.92,0.11c-0.37,0.05-0.74,0.1-1.13,0.17c-0.39,0.07-0.77,0.15-1.13,0.24c-0.37,0.09-0.67,0.19-0.92,0.3
		v0.87L77,7.1v8.45c-0.25,0.06-0.5,0.13-0.75,0.21c-0.25,0.08-0.51,0.19-0.79,0.35v0.87h6.76v-0.87c-0.31-0.17-0.62-0.3-0.93-0.38
		c-0.31-0.08-0.62-0.14-0.93-0.17v-5.9c0.2-0.49,0.43-0.84,0.68-1.06c0.25-0.22,0.47-0.37,0.65-0.46H84.87z M65.57,9.07
		c0.1-0.59,0.25-1.06,0.45-1.43c0.2-0.36,0.45-0.62,0.75-0.78c0.29-0.16,0.64-0.24,1.05-0.24c0.54,0,0.99,0.11,1.35,0.33
		c0.36,0.22,0.64,0.53,0.85,0.93c0.21,0.4,0.36,0.88,0.44,1.45c0.09,0.57,0.13,1.2,0.13,1.91c0,0.86-0.05,1.58-0.15,2.17
		c-0.1,0.59-0.25,1.07-0.45,1.43c-0.2,0.36-0.44,0.62-0.72,0.78c-0.28,0.16-0.59,0.24-0.93,0.24c-0.59,0-1.07-0.11-1.44-0.33
		c-0.37-0.22-0.67-0.53-0.89-0.93c-0.22-0.4-0.37-0.88-0.45-1.46c-0.09-0.57-0.13-1.21-0.13-1.9C65.42,10.38,65.47,9.66,65.57,9.07
		 M62.18,13.66c0.25,0.74,0.63,1.38,1.14,1.91c0.51,0.53,1.16,0.94,1.93,1.24c0.78,0.3,1.69,0.45,2.75,0.45
		c0.96,0,1.83-0.14,2.6-0.41c0.77-0.28,1.42-0.67,1.96-1.2c0.54-0.52,0.94-1.15,1.22-1.9c0.28-0.74,0.42-1.58,0.42-2.52
		c0-0.87-0.12-1.68-0.35-2.42c-0.23-0.74-0.6-1.38-1.11-1.91c-0.5-0.53-1.15-0.94-1.93-1.24c-0.78-0.3-1.72-0.45-2.81-0.45
		c-0.96,0-1.83,0.14-2.59,0.41c-0.76,0.28-1.41,0.67-1.95,1.2c-0.54,0.52-0.95,1.15-1.24,1.9c-0.29,0.74-0.43,1.58-0.43,2.52
		C61.81,12.11,61.93,12.92,62.18,13.66 M60.99,8.14v-0.9c-0.08-0.35-0.18-0.72-0.3-1.11c-0.12-0.39-0.27-0.69-0.44-0.91
		c-0.42-0.02-0.82,0.07-1.21,0.25c-0.39,0.18-0.75,0.43-1.07,0.74c-0.33,0.31-0.61,0.64-0.85,1.01c-0.24,0.37-0.42,0.72-0.55,1.06
		h-0.09V5.22h-0.79c-0.25,0.03-0.56,0.07-0.92,0.11c-0.37,0.05-0.74,0.1-1.13,0.17c-0.39,0.07-0.77,0.15-1.13,0.24
		c-0.37,0.09-0.67,0.19-0.92,0.3v0.87l1.54,0.18v8.45c-0.25,0.06-0.5,0.13-0.75,0.21c-0.25,0.08-0.51,0.19-0.79,0.35v0.87h6.76
		v-0.87c-0.31-0.17-0.62-0.3-0.93-0.38c-0.31-0.08-0.62-0.14-0.93-0.17v-5.9c0.2-0.49,0.43-0.84,0.68-1.06
		c0.25-0.22,0.47-0.37,0.65-0.46H60.99z M46.46,7.49c0.25,0.64,0.32,1.56,0.21,2.76h-3.73c0.05-0.74,0.12-1.34,0.23-1.83
		c0.11-0.48,0.25-0.87,0.43-1.15c0.18-0.28,0.39-0.48,0.63-0.59c0.24-0.11,0.51-0.16,0.82-0.16C45.74,6.53,46.21,6.85,46.46,7.49
		 M49.41,14.6c-0.31,0.25-0.74,0.44-1.29,0.6c-0.55,0.15-1.08,0.23-1.6,0.23c-1.2,0-2.1-0.36-2.71-1.08
		c-0.61-0.72-0.93-1.69-0.94-2.9h7.15c0.2-1.15,0.21-2.12,0.03-2.92c-0.18-0.8-0.5-1.44-0.96-1.93c-0.46-0.49-1.03-0.84-1.72-1.06
		c-0.69-0.21-1.43-0.32-2.22-0.32c-1.85,0-3.29,0.51-4.33,1.54c-1.04,1.03-1.56,2.52-1.56,4.48c0,0.92,0.13,1.75,0.38,2.48
		c0.26,0.74,0.63,1.37,1.13,1.9c0.5,0.53,1.12,0.93,1.86,1.22c0.75,0.28,1.6,0.43,2.56,0.43c0.61,0,1.17-0.07,1.69-0.2
		c0.52-0.13,0.98-0.3,1.37-0.51c0.4-0.21,0.73-0.44,1-0.71c0.27-0.27,0.47-0.53,0.59-0.79L49.41,14.6z M33.72,8.08
		c0.32,0.68,0.48,1.65,0.48,2.91c0,1.62-0.21,2.86-0.63,3.7c-0.42,0.84-1.07,1.26-1.96,1.26c-0.45,0-0.82-0.04-1.1-0.13
		c-0.28-0.08-0.54-0.22-0.79-0.4V9.31c0.17-0.77,0.46-1.33,0.87-1.7c0.41-0.37,0.88-0.55,1.41-0.55C32.83,7.06,33.4,7.4,33.72,8.08
		 M31.27,20.71c-0.28-0.17-0.54-0.3-0.79-0.38c-0.25-0.08-0.5-0.14-0.75-0.17V16.8c0.34,0.17,0.66,0.29,0.97,0.36
		c0.3,0.07,0.72,0.1,1.25,0.1c0.92,0,1.74-0.15,2.46-0.44c0.72-0.29,1.34-0.7,1.84-1.24c0.5-0.54,0.89-1.2,1.16-1.98
		c0.27-0.78,0.41-1.66,0.41-2.62c0-1.01-0.11-1.88-0.31-2.61c-0.21-0.73-0.51-1.33-0.89-1.79c-0.38-0.47-0.85-0.81-1.4-1.03
		c-0.55-0.22-1.17-0.33-1.85-0.33c-1.01,0-1.8,0.25-2.36,0.74c-0.57,0.49-0.98,1.1-1.25,1.84h-0.02V5.22h-0.79
		c-0.25,0.03-0.56,0.07-0.92,0.11c-0.37,0.05-0.74,0.1-1.13,0.17c-0.39,0.07-0.77,0.15-1.13,0.24c-0.37,0.09-0.67,0.19-0.92,0.3
		v0.87l1.54,0.18v13.05c-0.5,0.12-1.01,0.31-1.54,0.55v0.87h6.43V20.71z M11.77,14.79c0.17,0.62,0.42,1.12,0.75,1.49
		c0.33,0.37,0.72,0.63,1.18,0.77c0.46,0.15,0.98,0.22,1.57,0.22c0.53,0,1.01-0.08,1.44-0.25c0.43-0.17,0.81-0.39,1.13-0.66
		c0.32-0.27,0.58-0.57,0.78-0.9c0.2-0.33,0.34-0.65,0.42-0.98h0.09l0.16,2.74h0.79c0.28-0.03,0.59-0.07,0.94-0.13
		c0.35-0.05,0.7-0.12,1.06-0.21c0.36-0.08,0.7-0.17,1.03-0.26c0.33-0.09,0.6-0.18,0.82-0.28v-0.8l-1.54-0.18V5.22H21.6
		c-0.28,0.03-0.61,0.07-0.98,0.13c-0.37,0.05-0.75,0.11-1.13,0.18c-0.38,0.07-0.75,0.15-1.09,0.24c-0.35,0.09-0.64,0.18-0.87,0.28
		v0.87l1.51,0.18v6.04c-0.26,0.8-0.6,1.38-1.01,1.74c-0.41,0.36-0.86,0.54-1.34,0.54c-0.7,0-1.18-0.28-1.43-0.83
		c-0.26-0.55-0.38-1.46-0.38-2.71c0-1.07,0.02-2.16,0.07-3.28C14.98,7.5,15,6.37,15,5.22h-0.79c-0.25,0.03-0.56,0.07-0.92,0.13
		c-0.37,0.05-0.74,0.11-1.13,0.18c-0.39,0.07-0.77,0.15-1.13,0.24c-0.37,0.09-0.67,0.18-0.92,0.28v0.87l1.54,0.18
		c0,0.92-0.02,1.8-0.07,2.63c-0.05,0.83-0.07,1.73-0.07,2.7C11.51,13.38,11.59,14.16,11.77,14.79 M5.48,15.56
		c-0.37,0.26-0.78,0.39-1.23,0.39c-0.19,0-0.38-0.01-0.59-0.03c-0.21-0.02-0.4-0.1-0.57-0.22l-1.14-2.51H1.14
		c-0.26,0.44-0.51,0.95-0.75,1.52c-0.23,0.57-0.37,1.13-0.4,1.68c0.57,0.28,1.26,0.49,2.05,0.64c0.79,0.15,1.56,0.23,2.31,0.23
		c1.46,0,2.62-0.3,3.5-0.91c0.87-0.61,1.3-1.44,1.3-2.49c0-0.6-0.14-1.11-0.43-1.54c-0.29-0.43-0.64-0.8-1.07-1.11
		c-0.43-0.31-0.89-0.59-1.4-0.84c-0.51-0.25-0.97-0.49-1.4-0.74C4.43,9.39,4.07,9.12,3.79,8.84c-0.29-0.28-0.43-0.62-0.43-1
		c0-0.34,0.12-0.64,0.36-0.91c0.24-0.27,0.59-0.4,1.06-0.4c0.25,0,0.47,0.01,0.68,0.03c0.2,0.02,0.4,0.07,0.58,0.15l0.98,2.34h0.79
		C7.98,8.6,8.15,8.09,8.34,7.53c0.19-0.56,0.31-1.08,0.37-1.57c-0.54-0.23-1.18-0.41-1.9-0.54c-0.72-0.13-1.5-0.2-2.34-0.2
		c-0.61,0-1.17,0.07-1.69,0.22C2.26,5.58,1.82,5.78,1.44,6.05C1.07,6.31,0.78,6.62,0.56,7C0.34,7.37,0.23,7.79,0.23,8.25
		c0,0.64,0.14,1.19,0.43,1.63c0.29,0.44,0.64,0.83,1.07,1.16c0.43,0.33,0.89,0.62,1.4,0.86c0.5,0.25,0.97,0.49,1.4,0.74
		c0.43,0.25,0.78,0.51,1.07,0.8c0.29,0.29,0.43,0.64,0.43,1.03C6.03,14.94,5.85,15.3,5.48,15.56"/>
</g>
</svg>
