<?xml version="1.0" encoding="utf-8"?>
<!-- Generator: Adobe Illustrator 24.0.0, SVG Export Plug-In . SVG Version: 6.00 Build 0)  -->
<svg version="1.1" id="Layer_1" xmlns="http://www.w3.org/2000/svg" xmlns:xlink="http://www.w3.org/1999/xlink" x="0px" y="0px"
	 viewBox="0 0 34.28 23.72" style="enable-background:new 0 0 34.28 23.72;" xml:space="preserve">
<style type="text/css">
	.st0{fill:#086CA3;}
	.st1{display:none;fill:#FFFFFF;}
</style>
<g>
	<g>
		<g>
			<path class="st0" d="M5.66,10.65c-0.65,0.86-1.15,1.53-1.74,2.31c-0.57-1.55,1.69-2.43,0.5-4.04C3.89,9.2,3.35,9.46,2.83,9.76
				c-0.62,0.37-1.16,0.43-1.69-0.35c1.03-0.41,2.01-0.8,2.97-1.19C4.58,6.4,2.42,6.55,1.98,5.05c1,0.42,1.76,0.74,2.41,1.02
				c1.23-0.67,2.4-1.31,3.7-2.02c-0.23-0.96-0.47-2-0.72-3.05c0.13-0.06,0.26-0.12,0.39-0.17C8.32,2.1,8.88,3.37,9.39,4.54
				c1.27,0.06,1.37-0.59,1.43-1.38c0.05-0.65,0.27-1.29,0.41-1.94c0.17,0.03,0.34,0.07,0.51,0.1c-0.1,0.74-0.14,1.5-0.32,2.22
				C11.05,5,11.62,5.82,13.11,6.16c0.44-0.59,0.89-1.19,1.52-2.04c0.1,0.55,0.23,0.84,0.15,0.92c-1.63,1.75-0.74,3.14,0.62,4.47
				c0.63-0.4,1.25-0.79,2.16-1.36c-0.2,1.57-2.64,2.02-1.06,3.79c0.52,0.04,1.21,0.09,2.08,0.16c-3.72,1.78-2.63,2.79,0.15,5.41
				c-0.9-0.37-1.8-0.73-2.77-1.13c-1.58,0.99-0.24,2.63-0.91,4.32c-0.37-1.42-0.64-2.43-0.94-3.6c-0.56-0.21-1.2-0.46-1.99-0.76
				c-0.21,1.03-0.4,1.93-0.65,3.17c-1.19-1.44,0.4-3.45-1.42-4.43c-0.68,1.04-1.31,1.99-1.93,2.93c-0.14-0.07-0.27-0.15-0.41-0.22
				c0.22-0.42,0.47-0.83,0.64-1.27c1.09-2.73,0.96-2.5-1.01-3.92c-0.66,1-1.31,1.99-1.97,2.99c-0.09-0.05-0.18-0.11-0.27-0.16
				c0.42-1.29,0.88-2.56,1.24-3.87C6.38,11.38,5.99,11.08,5.66,10.65z M14.83,15.87c1-3.74-0.6-7.85-3.66-9.45
				C10.28,5.96,9.2,5.69,8.2,5.67c-1.1-0.02-2.25,0.3-2.82,1.47C4.86,8.23,5.61,9.06,6.19,9.71c1.33,1.47,2.88,2.73,4.25,4.18
				C11.61,15.12,13.06,15.59,14.83,15.87z"/>
			<path class="st0" d="M27.79,19.65c-0.74,1.31-1.18,2.07-1.61,2.83c-0.1-0.04-0.2-0.07-0.29-0.11c0.11-0.52,0.32-1.03,0.3-1.55
				c-0.01-0.42-0.17-1-0.47-1.2c-0.24-0.16-0.8,0.11-1.2,0.25c-0.25,0.09-0.47,0.28-0.86,0.34c0.78-1.28,1.58-2.5,0.07-3.88
				c-0.62,0.29-1.3,0.6-1.98,0.91c-0.08-0.11-0.16-0.21-0.23-0.32c0.58-0.55,1.16-1.1,1.94-1.82c-0.41-0.69-0.83-1.39-1.27-2.12
				c-0.72,0.24-1.29,0.43-2.38,0.8c0.73-0.86,1.11-1.3,1.43-1.68c-0.24-1.99-1.77-0.32-2.57-1.08c2.49-1.99,1.15-3.99-0.2-6
				c1.44-0.04,1.7,2.22,3.4,1.3c-0.34-0.94-0.64-1.79-1.02-2.86c1.47,0.57,1.43,2.69,3.38,2.3c0.22-0.58,0.5-1.29,0.8-2.08
				c0.7,0.86-0.48,2.46,1.37,2.78c0.4-0.7,0.83-1.44,1.51-2.62c0.07,1.84-1.4,3.52,0.9,4.33c0.73-0.75,1.48-1.53,2.35-2.42
				c0.96,1.58-1.13,2.25-1.43,3.76c1.2-0.32,2.05-0.56,2.91-0.79c0.07,0.14,0.13,0.28,0.2,0.41c-0.77,0.38-1.54,0.75-2.47,1.21
				c0.24,0.68,0.5,1.39,0.81,2.25c0.97-0.09,1.86-0.16,2.84-0.25c-0.57,1.33-1.81,0.78-2.67,1.09c-0.57,1.97,0.84,2.38,2.2,2.98
				c-0.56,0-1.12,0-1.84,0c-0.43,1.34-0.57,2.64,0.9,4.27c-1.47-0.57-2.32-0.9-3.34-1.3c-0.11,1.18-0.18,2.02-0.28,3.19
				C28.59,21.61,28.31,20.92,27.79,19.65z M30.6,17.56c-0.06-1.18-0.07-2.21-0.18-3.23c-0.33-2.92-1.54-5.24-4.33-6.61
				c-2.29-1.12-3.31-1.04-5.26,0.91c0.08,0.34,0.08,0.78,0.28,1.09c1.73,2.64,3.61,5.17,4.56,8.27c0.17,0.57,1.19,0.99,1.9,1.25
				c0.77,0.29,1.29-0.2,1.7-0.91C29.46,18,30.03,17.88,30.6,17.56z"/>
			<path class="st0" d="M5.22,4.76c-0.54-0.8-1.08-1.61-1.63-2.41c0.15-0.1,0.3-0.2,0.46-0.31c0.56,0.8,1.11,1.59,1.67,2.39
				C5.55,4.55,5.39,4.65,5.22,4.76z"/>
			<path class="st1" d="M14.83,15.87c-1.77-0.28-3.21-0.75-4.39-1.99c-1.36-1.44-2.92-2.7-4.25-4.18C5.61,9.06,4.86,8.23,5.38,7.14
				C5.95,5.97,7.1,5.65,8.2,5.67c1,0.02,2.08,0.29,2.97,0.75C14.23,8.03,15.83,12.14,14.83,15.87z M7.78,8.09
				c1.13,0.94,1.99,1.69,2.9,2.38c0.85,0.65,0.86,2.18,2.4,2.37C11.77,9.42,10.05,7.81,7.78,8.09z"/>
			<path class="st1" d="M30.6,17.56c-0.57,0.31-1.14,0.44-1.34,0.78c-0.41,0.71-0.93,1.2-1.7,0.91c-0.71-0.27-1.73-0.69-1.9-1.25
				c-0.95-3.1-2.82-5.63-4.56-8.27c-0.2-0.31-0.2-0.75-0.28-1.09c1.96-1.95,2.97-2.03,5.26-0.91c2.8,1.37,4,3.69,4.33,6.61
				C30.54,15.35,30.54,16.39,30.6,17.56z M27.66,16.32c0.43-3.6-1.35-6.67-4.19-7.06C25.92,11.25,27.23,13.54,27.66,16.32z"/>
			<path class="st0" d="M7.78,8.09c2.28-0.28,3.99,1.32,5.3,4.75c-1.53-0.18-1.55-1.72-2.4-2.37C9.77,9.79,8.91,9.03,7.78,8.09z"/>
			<path class="st0" d="M27.66,16.32c-0.43-2.79-1.74-5.07-4.19-7.06C26.31,9.65,28.09,12.73,27.66,16.32z"/>
		</g>
	</g>
</g>
</svg>
