<?xml version="1.0" encoding="utf-8"?>
<!-- Generator: Adobe Illustrator 24.0.0, SVG Export Plug-In . SVG Version: 6.00 Build 0)  -->
<svg version="1.1" id="Layer_1" xmlns="http://www.w3.org/2000/svg" xmlns:xlink="http://www.w3.org/1999/xlink" x="0px" y="0px"
	 viewBox="0 0 40.51 50.41" style="enable-background:new 0 0 40.51 50.41;" xml:space="preserve">
<style type="text/css">
	.st0{fill:#086CA3;}
</style>
<g>
	<g>
		<g>
			<path class="st0" d="M36.53,18.93c-1.15,0.67-2.39,1.25-3.44,2.05c-0.77,0.59-1.52,1.4-1.91,2.27c-0.65,1.43-0.28,2.13,1.13,2.92
				c1.46,0.82,2.9,1.7,4.42,2.37c1.64,0.73,2.33,1.97,2.67,4.02c-1.74-1.29-2.62-3.26-4.71-3.37c-0.55-0.03-1.13-0.02-1.66,0.11
				c-0.51,0.13-0.97,0.46-1.51,0.73c0.35,1.48,1.57,2.05,2.43,2.92c0.78,0.79,1.98,1.21,2.45,2.88c-0.9-0.45-1.42-0.73-1.95-0.99
				c-2.01-1.01-4.9-0.56-6.38,1.03c-0.8,0.85-0.86,1.91-0.47,2.91c0.63,1.63,1.36,3.22,2.11,4.79c1.26,2.62,1.08,4.54-0.68,6.51
				c-0.53-1.93-0.95-3.9-1.62-5.78c-0.45-1.25-1.13-2.47-1.92-3.54c-2.21-3-5.15-2.8-7.04,0.4c-0.57,0.96-1.09,1.96-1.75,2.85
				c-0.64,0.86-1.45,1.6-2.18,2.4c-0.17-0.07-0.33-0.13-0.5-0.2c0-0.47-0.08-0.97,0.02-1.42c0.33-1.47,0.91-2.91,1.04-4.4
				c0.22-2.32-2.39-4.15-4.58-3.29c-1.03,0.41-1.98,1.04-2.96,1.57c-1.91,1.03-3.91,1.32-6,0.64c-0.22-0.07-0.43-0.21-0.59-0.37
				c-0.1-0.09-0.1-0.28-0.21-0.61c0.4-0.14,0.8-0.35,1.22-0.42c3.06-0.51,5.51-1.96,7.33-4.52c0.53-0.74,0.71-1.44,0.31-2.21
				c-0.4-0.78-0.81-1.58-1.38-2.23c-1.11-1.29-2.6-1.45-4.58-0.54C3,28.7,2.44,29.14,1.76,29.57c-0.57-0.51-0.77-1.1-0.26-1.65
				c0.64-0.69,1.37-1.32,2.15-1.85c0.58-0.39,1.27-0.73,1.96-0.85c3.23-0.55,3.51-3.03,3.63-5.54c0.03-0.61-0.34-1.44-0.81-1.83
				c-1.1-0.9-2.34-1.65-3.57-2.36c-2.08-1.21-3.38-3.31-3.48-6.15c0.42,0.52,0.76,0.79,0.9,1.15c0.58,1.52,1.79,2.3,3.11,3.14
				c2.51,1.58,5.47,1.59,8.14,2.6c1.31,0.49,3.23,0.09,4-1.45c0.82-1.63,1.14-3.48,0.13-5.27c-0.28-0.49-0.48-1.02-0.51-1.65
				c1.71,1.04,2.94,2.46,3.74,4.19c0.44,0.95,0.63,2.05,1.92,2.13c1.3,0.08,2.61-0.07,3.52-1.12c0.56-0.64,0.99-1.44,1.3-2.24
				c0.84-2.15,1.46-4.36,1.59-6.7c0.08-1.38,0.46-2.75,2.09-3.15c0.3-0.07,0.67,0.14,1.45,0.32c-3.12,1.81-2.67,4.42-2.24,6.88
				c0.45,2.56,0.85,4.99-0.71,7.38c-0.73,1.12-0.12,2.33,0.68,3.3c0.71,0.86,1.71,0.82,2.65,0.54c0.76-0.23,1.46-0.64,2.22-0.9
				c0.32-0.11,0.7-0.02,1.05-0.02C36.44,18.61,36.49,18.77,36.53,18.93z M16.14,33.09c-0.83-0.89-0.29-1.74,0.05-2.61
				c0.2-0.51,0.31-1.05,0.6-2.08c-0.8,0.4-1.08,0.5-1.3,0.67c-1,0.79-1.77,0.33-2.01-0.63c-0.24-0.98-0.64-1.4-1.58-1.76
				c-0.97-0.38-1.23-1.48-0.99-2.47c0.23-0.95,0.75-1.78,1.94-1.78c0.38,0,0.76,0,1.14,0c0.4-1.73,1.34-2.73,3.01-3.14
				c0.61-0.15,1.15-0.68,1.64-1.13c0.97-0.87,1.9-1.05,3.04-0.43c0.6,0.33,1.17,0.73,1.8,1.13c0.4-0.43,0.69-0.7,0.93-1.01
				c0.69-0.89,1.55-1.13,2.53-0.61c0.83,0.43,1.18,1.65,0.83,2.75c-0.12,0.37-0.42,0.69-0.5,1.07c-0.14,0.62-0.18,1.26-0.25,1.87
				c1.11,0.37,1.91,0.64,2.78,0.92c0.46-1.08,0.9-2.09,1.33-3.1c-2.89-2.43-3.14-3.56-1.55-6.95c0.8-1.7,0.75-3.37-0.27-5.27
				c-0.2,0.76-0.25,1.32-0.5,1.77c-0.71,1.32-1.27,2.81-2.29,3.85c-2.15,2.2-5.43,1.33-6.37-1.49c-0.1-0.31-0.33-0.58-0.68-1.19
				c-0.2,0.76-0.32,1.13-0.39,1.5c-0.7,3.68-3.49,5.14-7.04,3.8c-1.18-0.44-2.49-0.53-3.74-0.77c-0.12,0.14-0.25,0.28-0.37,0.41
				c3.18,1.05,1.98,3.36,2.07,5.43c0.13,2.84-1.82,3.53-3.95,4.29c2.12,1.23,3.2,2.24,4.11,3.78c1.18,2.01,0.99,3.47-0.71,5.11
				c-0.86,0.83-1.73,1.64-2.6,2.46c2.38-0.83,4.23-3,7.12-0.98c2.66,1.86,2.46,4.14,1.83,6.8c0.85-1.11,1.49-2.27,2.18-3.4
				c1.86-3.06,5.26-3.33,7.52-0.61c0.63,0.76,1.22,1.56,1.83,2.34c0.04-0.72-0.2-1.29-0.4-1.88c-1.08-3.18-0.06-5.24,3.14-6.32
				c0.69-0.23,1.41-0.36,2.26-0.57c-0.94-0.94-2.13-1.64-1.5-2.92c0.43-0.88,1.25-1.56,1.92-2.36c-0.78-0.48-1.59-0.98-2.39-1.47
				c-1.77,2.29-5.02,5.04-7.54,5.15c-0.53,0.98-0.79,2.21-1.51,2.59c-0.68,0.36-1.83-0.18-2.77-0.32c-0.84,0.01-1.81,1.21-2.49-0.51
				c2.03-0.08,2.04-0.11,1.8-2.14C16.53,31.27,16.53,31.27,16.14,33.09z M19.53,22.52c0.03-0.78-1.25-2.25-2.03-2.34
				c-1.23-0.13-2.73,1.24-2.75,2.5c-0.02,1.12,0.95,2.5,1.8,2.55C17.51,25.3,19.49,23.5,19.53,22.52z M17.12,26.63
				c0,0.67-0.12,1.39,0.05,2.05c0.09,0.35,0.71,0.85,1.01,0.8c1-0.16,2.01-0.38,2.47-1.57c0.43-1.1,0.43-1.96-0.55-2.66
				C19.07,25.73,18.15,26.15,17.12,26.63z M25.81,24.55c-0.19,1.14-0.45,2.18,0.79,2.76c0.77,0.36,1.65,0.44,2.09-0.42
				c0.3-0.58,0.54-1.51,0.27-1.98C28.27,23.67,27.08,24.12,25.81,24.55z M23.95,27.27c0.95-1.55,1.05-2.53,0.19-2.77
				c-0.48-0.13-1.3,0.07-1.62,0.42C21.89,25.62,22.48,26.5,23.95,27.27z M27.11,18.8c-0.23-0.22-0.83-1-1.03-0.91
				c-0.65,0.29-1.39,0.8-1.64,1.41c-0.31,0.77,0.47,1.08,1.15,1.03C26.31,20.3,27.05,20.16,27.11,18.8z M14.15,24.62
				c-0.33-0.31-0.73-1.02-1.28-1.15c-0.85-0.21-1.35,0.5-1.19,1.3c0.1,0.51,0.55,1.24,0.98,1.35C13.39,26.3,14.02,25.83,14.15,24.62
				z M20.99,18.25c-0.96-0.03-1.96-0.19-1.91,1.09c0.02,0.36,0.77,1.02,1.09,0.96C21.17,20.14,21.57,19.44,20.99,18.25z
				 M20.66,23.89c1.11-0.2,1.95-0.34,1.72-1.56c-0.05-0.27-0.5-0.7-0.72-0.67C20.53,21.8,20.49,22.62,20.66,23.89z M21.96,31.89
				c-0.66-0.41-1.18-0.87-1.31-0.79c-0.44,0.32-0.86,0.78-1.05,1.28c-0.07,0.19,0.5,0.63,0.77,0.95
				C20.84,32.92,21.29,32.51,21.96,31.89z M26.34,22.68c-0.44-1.54-1.37-1.15-2.15-0.9c-0.18,0.06-0.38,0.81-0.23,1.02
				C24.71,23.9,25.42,22.72,26.34,22.68z M23.6,30.33c-0.1-0.53-0.05-1-0.26-1.22c-0.31-0.33-0.78-0.55-1.23-0.69
				c-0.12-0.04-0.59,0.45-0.54,0.6c0.11,0.41,0.33,0.89,0.66,1.1C22.56,30.34,23.08,30.27,23.6,30.33z M14.48,29.09
				c0.55-0.92,0.88-1.47,1.39-2.32C13.97,26.77,13.97,27.52,14.48,29.09z M29.02,43.93c-0.19,0.05-0.38,0.11-0.57,0.16
				c0.25,0.74,0.5,1.48,0.75,2.21c0.15-0.04,0.3-0.08,0.46-0.12C29.44,45.43,29.23,44.68,29.02,43.93z"/>
		</g>
	</g>
</g>
</svg>
